<?xml version="1.0" encoding="UTF-8" standalone="no"?>
<!-- Created with Inkscape (http://www.inkscape.org/) -->

<svg
   xmlns:dc="http://purl.org/dc/elements/1.1/"
   xmlns:cc="http://creativecommons.org/ns#"
   xmlns:rdf="http://www.w3.org/1999/02/22-rdf-syntax-ns#"
   xmlns:svg="http://www.w3.org/2000/svg"
   xmlns="http://www.w3.org/2000/svg"
   xmlns:sodipodi="http://sodipodi.sourceforge.net/DTD/sodipodi-0.dtd"
   xmlns:inkscape="http://www.inkscape.org/namespaces/inkscape"
   width="740.42267"
   height="549.5752"
   id="svg16018"
   sodipodi:version="0.32"
   inkscape:version="0.48.4 r9939"
   version="1.0"
   sodipodi:docname="Iceland.svg"
   inkscape:output_extension="org.inkscape.output.svg.inkscape">
  <sodipodi:namedview
     id="base"
     pagecolor="#ffffff"
     bordercolor="#666666"
     borderopacity="1.0"
     gridtolerance="10000"
     guidetolerance="10"
     objecttolerance="10"
     inkscape:pageopacity="0.0"
     inkscape:pageshadow="2"
     inkscape:zoom="0.85328448"
     inkscape:cx="459.92648"
     inkscape:cy="212.58678"
     inkscape:document-units="px"
     inkscape:current-layer="layer3"
     inkscape:window-width="1680"
     inkscape:window-height="980"
     inkscape:window-x="0"
     inkscape:window-y="45"
     showgrid="false"
     fit-margin-top="0"
     fit-margin-left="0"
     fit-margin-right="0"
     fit-margin-bottom="0"
     showguides="true"
     inkscape:guide-bbox="true"
     inkscape:window-maximized="0">
    <sodipodi:guide
       orientation="0,1"
       position="691.12596,858.52098"
       id="guide3038" />
  </sodipodi:namedview>
  <defs
     id="defs16020" />
  <metadata
     id="metadata16023">
    <rdf:RDF>
      <cc:Work
         rdf:about="">
        <dc:format>image/svg+xml</dc:format>
        <dc:type
           rdf:resource="http://purl.org/dc/dcmitype/StillImage" />
      </cc:Work>
    </rdf:RDF>
  </metadata>
  <g
     inkscape:groupmode="layer"
     id="layer2"
     inkscape:label="sea"
     style="display:inline">
    <path
       style="fill:#daf0fd;fill-opacity:1"
       id="path-sea"
       d="m 0,-4.6875e-6 740.42266,0 0,549.5752146874999 -740.42266,0 z"
       inkscape:connector-curvature="0"
       sodipodi:nodetypes="ccccc" />
  </g>
  <g
     inkscape:groupmode="layer"
     id="layer3"
     inkscape:label="land"
     style="display:inline">
    <path
       style="fill:#fcf5e3;fill-opacity:1;stroke:#00baff;stroke-width:0.49976683;stroke-miterlimit:4;stroke-opacity:1;stroke-dasharray:none;display:inline"
       d="m 89.75432,510.21334 c 0.237362,-3.22367 2.053638,2.17154 0,0 z m 627.93859,-1.97548 c 3.53808,-1.07008 0.6433,1.14053 0,0 z m -459.69108,-6.83287 c 1.60394,-3.45153 1.58055,3.44459 0,0 z m 22.62171,-13.44439 c -6.48646,-9.7397 7.49415,-9.82454 1.3e-4,0 l -1.3e-4,0 z m -0.25218,-6.48117 c -2.78335,0.7742 -1.27302,1.86607 0,0 z m 95.20094,5.61525 c -14.39624,-0.82852 -29.96911,-1.42499 -42.0428,-10.06259 -18.59353,-14.87584 -48.04261,-0.94733 -62.7056,-23.01433 -15.26946,-15.61435 -34.97728,-31.80329 -56.11478,-34.32982 -8.67175,14.16233 -27.92325,-2.22903 -41.45361,5.87337 -11.09143,-5.18988 -16.36215,3.95655 -28.79854,4.42554 0.98581,-18.22765 -2.05056,-21.79644 1.58407,-40.51893 6.59679,24.20694 30.04946,9.36815 39.66204,-0.0102 -3.61902,-8.44118 9.82576,2.14495 -1.34192,-10.84187 10.09327,1.07685 11.15906,1.06766 11.88636,-2.41858 11.86285,1.98403 -12.56743,-9.81541 -0.30961,-16.96405 3.95067,-11.17591 30.06235,-8.93292 18.66806,-11.91582 -2.55978,-0.95942 -20.42284,-6.25913 -16.93709,4.4195 -8.50024,10.47105 -24.66054,6.332 -11.39319,-4.40039 -22.90773,-10.41779 20.79682,-33.23209 -5.40666,-21.21719 -13.05437,20.12439 -5.76876,-13.81836 -13.78799,-1.86224 0.25629,8.39851 -10.92188,-25.05071 -1.95642,-18.03087 -1.0946,-1.84715 -6.23069,-18.4839 -21.88929,-16.74172 -16.60877,-2.36684 -41.41266,-9.8829 -51.43014,3.56685 -11.041246,12.10998 -21.52692,-6.24034 -24.04336,-11.80401 -1.288795,-13.78723 17.588738,-11.85035 24.9732,-9.15697 10.39996,-17.19817 25.35441,6.30586 23.53095,-14.74042 13.00809,-3.51706 -1.44725,21.75924 9.28772,3.69272 9.75177,-2.79885 14.66532,-10.69426 20.06115,-14.16379 0.41726,22.21742 18.8848,-6.18654 35.94698,5.36555 21.466,16.68742 28.20705,-44.78924 7.87541,-12.07958 -12.68159,-2.18012 -33.73567,-0.7228 -38.03898,-0.66235 12.98693,-12.44144 -12.98693,-1.44617 5.90871,-11.51601 8.91275,-15.87228 28.76103,-23.6226 44.4076,-31.7499 7.06927,-3.47194 -24.14082,-7.60608 -29.06661,-1.7091 -30.10262,-3.52297 26.60945,-17.21699 -5.18791,-12.65523 7.18049,-8.32132 -15.18644,15.09081 -9.48909,-9.22683 0.1532,11.78299 -6.28066,9.14071 -5.97913,7.34559 -7.68144,9.01652 -0.31738,-20.96724 -10.83508,-8.85622 -5.43057,2.61232 -7.92983,11.11973 -19.87655,8.41451 -0.93442,-6.54546 -3.72514,18.67316 -18.30707,9.23388 -16.509691,10.57298 -30.263993,15.074 -44.469349,-1.61521 -18.160345,3.98445 -22.500019,-0.16001 -8.448591,-11.537 0.595374,-22.38852 40.401056,22.74792 18.376519,-7.46768 5.744263,-4.25074 25.988652,12.41126 6.165331,-4.95202 -17.220035,-15.52744 -0.656607,-24.64803 6.46309,-11.30302 3.59614,6.00314 4.260223,3.89404 10.386635,5.62229 9.019505,2.78493 0.803998,8.34406 7.819425,8.28924 -9.771529,12.16681 9.55416,0.22429 15.62502,-3.09052 11.16063,3.59762 -32.031718,-10.94356 -5.03542,-5.39142 -3.44115,-0.6182 24.93226,-12.44699 2.63909,-7.82791 -18.211747,9.63702 -35.541928,-17.92337 -25.954743,-22.24758 11.296229,4.85866 15.229773,7.11778 22.957773,9.03699 7.63464,3.13333 21.55264,7.371 1.93868,-2.13516 -13.894919,-4.73561 -30.000228,-21.81897 -19.650129,-28.17459 8.566759,5.62871 27.883899,9.68645 5.442609,-6.40447 8.42802,-8.454278 29.11686,18.20259 9.69727,-3.39155 -15.017682,-10.71953 28.08989,-9.510119 20.82644,7.27083 -1.90212,3.04519 13.09323,-7.738465 6.7717,7.73063 9.28049,0.96337 7.0379,2.86484 14.08612,-2.13918 13.05651,10.01816 -5.50078,47.99984 7.06182,15.51461 2.78837,-17.68683 7.30493,12.55365 7.71505,1.8363 -1.87174,12.49478 -13.56503,26.63987 0.42015,8.71107 7.67803,-19.10491 -8.85954,-36.754608 -26.40083,-42.30335 -24.52171,-19.742753 34.92427,-8.8601 10.18052,-22.722 5.82841,-11.251751 -10.48051,4.267176 -9.58708,-2.11886 -10.67113,10.542929 -27.55594,-5.950926 -9.74295,-6.23852 -13.41583,-16.072095 14.97256,-10.914528 22.75459,-8.79879 3.44307,-9.375145 11.2805,1.518735 13.80307,-2.874029 8.08102,9.365184 11.65366,21.117137 12.88843,25.543879 9.78898,-6.206663 18.00404,10.458925 25.43638,16.32819 -2.03294,11.27049 9.09404,14.97177 9.76443,19.8028 6.39344,-18.343525 -0.16106,6.67999 15.10837,2.09825 3.60197,6.18607 -27.15442,10.81711 -4.08641,7.92302 7.15719,-0.47056 9.84392,23.51734 -1.72629,27.9303 14.17412,13.15475 -15.6918,7.4748 -15.23517,10.90564 12.78672,9.78647 33.01569,14.69648 11.18484,34.76774 23.08925,-24.13609 16.02919,57.90639 20.34012,30.71216 1.57096,-21.58157 -1.25949,-38.58014 10.88483,-18.00659 -16.29024,-12.54525 15.60144,-64.74874 18.02363,-36.25169 20.23766,9.58946 24.6429,-26.45828 17.2326,-42.17478 -8.52864,-16.55312 -0.76487,-34.822456 16.04229,-30.16979 6.99907,10.07349 7.65905,25.53376 16.19306,31.79032 5.45119,13.39225 21.22198,32.88287 23.6385,5.27482 -10.4911,-16.98628 1.58828,-34.70112 15.46819,-34.17063 1.07208,-10.97174 12.1247,-14.905318 14.06097,-9.60229 7.92971,-14.049169 0.63726,10.98812 12.84301,0.890759 -0.57031,12.735541 9.27173,9.589551 8.69745,26.451391 18.35614,-1.85124 19.61804,44.0038 23.61662,34.42308 6.91048,-21.31586 -12.31903,-31.31598 -12.99706,-52.14259 -2.46507,-18.396052 17.98355,-9.439061 24.89025,-3.350456 8.17662,8.860336 22.73286,31.862676 29.28264,7.585566 1.12946,-13.348452 17.74397,-32.266327 24.20206,-10.080431 23.04061,0.200501 33.49725,-20.597289 21.92209,-39.853239 -7.48122,-16.802391 4.8143,-16.067289 14.43044,-13.078229 0.70533,-7.301543 21.07639,-7.142719 18.57622,4.43837 0.70602,11.216151 26.13622,9.999916 9.76573,26.455239 6.6789,2.787557 20.56669,21.146121 25.5329,12.36677 -0.84638,-12.443946 19.77252,-12.364714 24.38651,-26.73963 12.6062,1.70314 29.88218,-1.567758 5.70733,9.17454 -15.63284,5.507499 -4.31021,24.517808 -19.08706,31.06758 4.85861,1.1591 10.12197,15.73868 20.2759,9.59117 23.029,-7.00084 4.43979,27.91355 3.66691,34.73651 -12.29096,24.87329 35.95334,-17.69473 27.26323,13.79265 12.08414,15.16014 29.81091,7.7201 33.67288,24.02324 9.96693,-10.33673 11.62966,16.43363 6.28471,22.86368 -17.13504,-0.40935 9.94274,8.92808 -13.62006,11.13008 -7.92219,2.03586 37.40496,-5.78127 14.75171,11.25788 -17.87979,2.83097 -24.83053,4.52194 -3.24762,2.72027 14.44822,-2.93442 -1.43055,16.77421 10.56031,11.88933 4.02366,13.62419 -7.68608,26.30555 -19.21187,8.47809 -3.57356,-3.4477 -31.3813,8.35862 -4.08345,5.12449 11.54792,2.07094 32.03754,20.42623 6.67745,13.03014 -18.22564,-5.44464 27.63649,15.64424 -0.003,12.08876 12.54914,6.74838 -10.3128,5.56402 -4.88169,17.50877 -14.00026,12.85194 -35.97342,-21.14953 -18.22658,4.59359 17.70183,13.56724 -17.01253,-4.33961 -3.8077,12.94164 -10.24148,0.7568 6.97067,30.92589 -16.63476,30.12044 -9.95375,8.07006 -15.55264,30.04208 -30.18608,18.54581 -9.35028,0.60604 -28.02796,9.72462 -42.62291,16.07487 -21.14852,15.62651 -30.75253,50.56696 -59.27145,51.24231 -18.98253,-1.50348 -44.92802,0.60965 -54.64989,20.72751 -5.97346,27.19981 -36.78446,26.3855 -56.1621,34.5654 l -2.77493,-0.32398 6e-5,-3.4e-4 z m 16.37534,-4.81415 c 2.5418,-2.64385 -5.33922,2.54056 0,0 z m 38.23859,-25.4716 c 1.29887,-2.96923 -7.90988,3.51225 0,0 z m 1.63771,-10.68621 c -1.47312,-9.24806 -1.77164,9.08276 0,0 z m 145.02051,-79.302 c -2.32113,-3.76485 -4.95663,-2.6238 0,0 z m 3.22654,-1.25784 c -4.39254,-0.68894 -1.5411,2.74307 0,0 z m 22.53012,-2.13273 c -3.50891,-8.8068 -9.92293,3.71021 0,0 z M 191.84394,347.10368 c -8.89902,-5.70915 -2.71736,2.81044 0,0 z m 29.82334,0.17107 c 5.09876,-4.01249 -7.03954,2.21454 0,0 z m 401.68006,-3.97761 c 17.45852,-2.31401 -8.13778,-1.61658 0,0 z m 10.93109,-39.33332 c -1.62106,-2.23879 -0.73881,2.35827 0,0 z m -0.1997,-15.06277 c -3.10529,-3.24684 -0.64229,2.54643 0,0 z m -4.97084,-1.72656 c -3.54613,-1.04882 -0.63517,1.14809 0,0 z m 26.03545,-17.99354 c -1.62084,-2.23869 -0.73912,2.3579 0,0 z m -4.79272,-3.91318 c -2.41063,-2.31994 -1.71231,2.37396 0,0 z m -14.59622,-9.56644 c -2.82489,-0.92047 -0.26834,1.25724 0,0 z m 25.21391,-15.80472 c -2.82521,-0.92058 -0.26876,1.25723 0,0 z M 89.40764,191.8725 c -1.525591,-2.31558 -0.852837,2.32875 0,0 z m 96.84496,-1.59812 c -8.67917,-8.28719 1.97769,4.69908 0,0 z m -3.08054,-4.27471 c -5.86752,-11.03331 1.20937,10.66658 0,0 z m 4.99478,2.91473 c -0.77864,-2.58055 -2.3241,2.50614 0,0 z m -87.8001,-2.34449 c -8.216401,-2.63035 2.84256,3.81771 0,0 z m -19.71985,-1.87164 c 13.423092,-6.87403 -10.858059,1.93328 0,0 z m -3.54554,-2.76304 c -0.337582,-4.06698 -1.245046,5.28713 0,0 z m 196.99695,-0.89055 c 3.03746,-6.13371 -9.43974,3.55137 0,0 z m -6.39423,-4.33936 c -0.42214,-6.36506 -1.52861,8.32155 0,0 z m 14.38265,1.70184 c -0.88803,-2.50511 -1.20604,3.32954 0,0 z m -62.62277,-0.42133 c 1.68822,-3.11636 -3.70367,3.45009 0,0 z m 52.74693,-1.80304 c -1.38409,-4.54106 -0.55339,4.42203 0,0 z m -187.05986,0.19346 c -2.825494,-0.92055 -0.268621,1.25724 0,0 z m 3.09935,-0.47554 c -0.287264,-1.75256 -3.795066,0.59073 0,0 z m 80.09776,-1.98184 c 3.32935,-4.69231 -4.83818,4.77558 0,0 z m -63.67591,-0.43675 c -1.62062,-2.23865 -0.73939,2.35773 0,0 z m 19.50814,-1.7215 c -1.82208,1.25676 -0.80345,2.87803 0,0 z m 28.50624,-0.19497 c -2.32437,-2.98961 1.71334,4.82986 0,0 z m -42.38548,-3.13474 c -2.82543,-0.9206 -0.26868,1.25729 0,0 z m -16.56845,-3.78689 c -0.621405,-2.40911 -1.348066,3.3423 0,0 z m -12.9436,-0.68284 c -3.545979,-1.04882 -0.635053,1.14811 0,0 z m 336.38851,-2.70048 c -2.51306,-3.62518 1.00562,5.47935 0,0 z m -214.16151,0.97184 c -3.54591,-1.04823 -0.63504,1.15026 0,0 z M 90.5472,159.63517 c -7.876667,-0.008 -4.93705,3.95317 0,0 z m -18.10213,-2.8633 c -2.825396,-0.92071 -0.268769,1.2574 0,0 z m 8.89476,-1.25909 c -1.858736,-1.23866 -1.501556,2.24771 0,0 z m 33.12939,-0.4023 c -2.30618,-2.46928 -0.80371,2.56829 0,0 z m -35.19264,-1.31209 c -2.043316,-3.5845 -1.31963,3.0124 0,0 z m 130.08371,-0.55472 c -9.35934,-10.12476 -6.74243,-0.32521 0,0 z m 393.43636,-5.53208 c -2.8624,-0.0719 -1.58706,3.40297 0,0 z m -527.83393,0.98493 c -1.52565,-2.31562 -0.852799,2.32881 0,0 z m 29.28188,-5.94046 c -0.77539,-4.82831 -6.24993,4.98378 0,0 z m -10.11154,0.18149 c -4.245614,-0.95214 -0.814783,1.08792 0,0 z m 4.90976,-0.54541 c 9.22485,-7.66047 -8.943439,3.21834 0,0 z m 6.86447,-2.31576 c -3.39814,-4.10632 2.09495,5.32824 0,0 z m 9.51211,0.65213 c -3.28428,-3.83284 2.32994,4.29932 0,0 z m -19.16606,0.0359 c -1.52562,-2.31559 -0.852752,2.3288 0,0 z m 1.94625,-2.04877 c -2.255965,-1.11368 -1.047197,3.04725 0,0 z m -7.07949,0.49785 c -6.798909,-1.73746 -6.813568,1.1246 0,0 z m 4.21107,-0.45427 c 0.124896,-3.53465 -4.415487,2.71173 0,0 z m 31.17057,-0.0632 c -1.63479,-2.34327 -1.64856,2.35153 0,0 z m -32.13973,-2.67269 c -3.416025,0.37803 -2.276523,3.29446 0,0 z m 9.32572,0.13113 c -1.62054,-2.23864 -0.73934,2.35778 0,0 z m -12.27102,-0.35548 c 0.05847,-9.03448 -3.854616,0.8583 0,0 z m 134.29008,-0.50996 c -2.82555,-0.92069 -0.2687,1.25739 0,0 z M 94.90285,132.77888 c 2.715997,-5.08913 -4.83514,3.5921 0,0 z m 16.68258,-0.38007 c -4.2456,-0.9522 -0.8148,1.08799 0,0 z m 4.12545,-1.36133 c 2.19732,-2.84698 -5.05573,3.73416 0,0 z m -26.0296,-0.43024 c -0.03558,-5.9131 -4.939516,5.41308 0,0 z m 50.97098,-4.85236 c 6.26881,-22.69681 -7.78213,14.53527 0,0 z m -30.11773,-1.08522 c -3.83147,-3.89933 0.80187,3.90767 0,0 z m 4.21819,-3.60358 c -12.36765,-19.05973 3.56781,10.49353 0,0 z m 5.23285,1.49722 c -5.41269,-5.06824 -1.24993,-1.49773 0,0 z m -22.27828,-2.50428 c -1.022692,-3.21284 -2.471771,4.74142 0,0 z m 3.52932,1.04034 c -3.248334,-2.58559 0.88539,2.36795 0,0 z m 7.40856,-1.41158 c -7.57824,1.38963 1.26736,-0.50809 0,0 z m 30.2038,-4.4866 c -2.85403,-0.48133 -0.14828,7.31577 0,0 z m -33.07893,2.09039 c 5.97732,-8.3844 -4.73463,2.17434 0,0 z m 13.18227,0.47245 c -5.19441,-2.42846 2.47127,2.613 0,0 z m 14.28672,-0.35031 c 9.22569,-10.87106 -8.23354,3.06804 0,0 z m -29.70835,-1.60032 c -4.232216,-1.92055 -1.69811,-0.77024 0,0 z m 23.16917,-1.60798 c -0.28729,-1.75256 -3.79509,0.59078 0,0 z m -27.34587,-2.31387 c -2.05365,-2.17153 -0.237531,3.2236 0,0 z m 14.81919,0.30666 c -2.04999,-1.79174 -2.94785,2.71749 0,0 z m 17.20754,-0.14996 c -3.54604,-1.04881 -0.63499,1.14811 0,0 z m -7.76744,-3.63296 c 1.78201,-4.22745 -3.72893,4.97093 0,0 z m 257.46227,-1.07987 c -0.88956,-2.50512 -1.20562,3.32917 0,0 z m -21.03908,-1.41905 c -6.30208,-11.774051 -0.80998,4.00469 0,0 z m -252.53024,-4.46337 c -3.3089,-4.42185 -2.16757,0.86739 0,0 z m 19.67387,-2.56568 c -3.5731,1.42989 -1.47941,4.21929 0,0 z m -7.19839,1.48348 c -0.88835,-2.505097 -1.20625,3.32943 0,0 z m 0.45316,-6.84432 c -1.63442,-2.343459 -1.64889,2.35153 0,0 z M 164.28911,77.0285 c 2.25141,-3.125302 -6.92295,2.644515 0,0 z M 28.95753,355.53962 c 0.302375,-2.82856 0.923125,1.73737 0,0 z m 174.32453,-7.52863 c 4.75178,-2.14906 -1.6686,2.64762 0,0 z m -4.3147,-1.69074 c 2.54142,-1.36882 0.60597,1.46098 0,0 z M 169.1191,328.15266 c 2.79389,-3.69154 -0.6828,3.56147 0,0 z m -5.4963,-7.43562 c 1.04754,-3.0473 2.25578,1.11395 0,0 z m 488.24776,-4.75184 c 2.18255,-2.92326 2.26178,3.4793 0,0 z M 83.62821,270.19529 c 1.501621,-2.24766 1.858641,1.23861 0,0 z m 43.03542,-13.69346 c 3.46585,-1.95563 -1.58352,2.0135 0,0 z m 26.60186,-7.17547 c 1.43333,-2.20501 1.83657,1.21988 0,0 z m 3.40365,-0.28003 c -2.0982,-9.49445 14.17492,-8.55421 0,0 z m 7.55301,-2.41589 c 0.85356,-2.32888 1.52481,2.3167 0,0 z m -2.82572,-8.50442 c 2.53259,-2.30691 1.58931,2.40224 0,0 z m -29.64691,-32.52618 c 1.63494,-3.46944 2.85859,0.15274 0,0 z m 6.43379,-0.18765 c 2.65572,-5.29306 3.72115,-1.08874 0,0 z m 4.08528,-5.88177 c 4.87247,-8.14213 -0.34475,6.05193 0,0 z m 4.97511,-0.94065 c 1.50161,-2.24765 1.85857,1.2387 0,0 z m -6.42453,-0.96039 c 1.43318,-2.20491 1.83668,1.21988 0,0 z m 40.85163,-0.83351 c 6.10641,-2.423 5.25185,2.32337 0,0 z m -30.54674,-0.8047 c 3.16878,-7.41181 3.16521,3.35296 0,0 z m 4.50642,-0.47728 c 1.2876,-3.03546 5.33867,1.1447 0,0 z m -5.90471,-1.87913 c 5.48525,-7.18757 -2.24986,7.72305 0,0 z m 5.46166,-2.982 c 1.06907,-6.47294 3.27312,6.08009 0,0 z m 522.21447,-3.03248 c 0.30221,-2.82858 0.9234,1.73737 0,0 z m -533.438,-1.03953 c -15.63765,-5.37989 7.61201,-24.30874 2.00743,0.066 l -2.00743,-0.066 0,-4e-5 z M 334.18078,122.4844 c -0.27339,-6.52799 6.42989,-1.57366 0,0 z m 63.45274,-4.52906 c -6.59757,-17.01109 7.34311,4.54515 0,0 z m -65.67327,-3.32356 c -2.15058,-3.77121 1.33886,-2.72196 0,0 z m 94.75161,-22.37059 c -0.27641,-5.058437 5.03612,1.466644 0,0 z M 31.75192,83.35141 c -1.044705,-2.416177 3.231608,2.444875 0,0 z m 2.47019,-66.81153 c 1.648832,-2.351403 1.634394,2.34337 0,0 z m 702.74977,-3.06262 c -2.58429,-2.322261 5.93434,1.786013 0,0 z"
       id="path6084-4"
       inkscape:connector-curvature="0" />
  </g>
</svg>
